HIERARCHY
ROOT Hips
{
	OFFSET 0.00000 0.00000 0.00000
	CHANNELS 6 Xposition Yposition Zposition Zrotation Yrotation Xrotation 
	JOINT LHipJoint
	{
		OFFSET 0 0 0
		CHANNELS 3 Zrotation Yrotation Xrotation
		JOINT LeftHip
		{
			OFFSET 1.36306 -1.79463 0.83929
			CHANNELS 3 Zrotation Yrotation Xrotation
			JOINT LeftKnee
			{
				OFFSET 2.44811 -6.72613 0.00000
				CHANNELS 3 Zrotation Yrotation Xrotation
				JOINT LeftAnkle
				{
					OFFSET 2.56220 -7.03959 0.00000
					CHANNELS 3 Zrotation Yrotation Xrotation
					JOINT LeftToe
					{
						OFFSET 0.15764 -0.43311 2.32255
						CHANNELS 3 Zrotation Yrotation Xrotation
						End Site
						{
							OFFSET 0.00000 -0.00000 1.18966
						}
					}
				}
			}
		}
	}
	JOINT RHipJoint
	{
		OFFSET 0 0 0
		CHANNELS 3 Zrotation Yrotation Xrotation
		JOINT RightHip
		{
			OFFSET -1.30552 -1.79463 0.83929
			CHANNELS 3 Zrotation Yrotation Xrotation
			JOINT RightKnee
			{
				OFFSET -2.54253 -6.98555 0.00000
				CHANNELS 3 Zrotation Yrotation Xrotation
				JOINT RightAnkle
				{
					OFFSET -2.56826 -7.05623 0.00000
					CHANNELS 3 Zrotation Yrotation Xrotation
					JOINT RightToe
					{
						OFFSET -0.16473 -0.45259 2.36315
						CHANNELS 3 Zrotation Yrotation Xrotation
						End Site
						{
							OFFSET -0.00000 -0.00000 1.21082
						}
					}
				}
			}
		}
	}
	JOINT lowerback
	{
		OFFSET 0 0 0
		CHANNELS 3 Zrotation Yrotation Xrotation
		JOINT Chest
		{
			OFFSET 0.02827 2.03559 -0.19338
			CHANNELS 3 Zrotation Yrotation Xrotation
			JOINT Chest2
			{
				OFFSET 0.05672 2.04885 -0.04275
				CHANNELS 3 Zrotation Yrotation Xrotation
				JOINT lowerneck
				{
					OFFSET 0 0 0
					CHANNELS 3 Zrotation Yrotation Xrotation
					JOINT Neck
					{
						OFFSET -0.05417 1.74624 0.17202
						CHANNELS 3 Zrotation Yrotation Xrotation
						JOINT Head
						{
							OFFSET 0.10407 1.76136 -0.12397
							CHANNELS 3 Zrotation Yrotation Xrotation
							End Site
							{
								OFFSET 0.03720 1.77044 -0.06241
							}
						}
					}
				}
				JOINT LeftCollar
				{
					OFFSET 0 0 0
					CHANNELS 3 Zrotation Yrotation Xrotation
					JOINT LeftShoulder
					{
						OFFSET 3.36241 1.20089 -0.31121
CHANNELS 3 Zrotation Xrotation Yrotation
						JOINT LeftElbow
						{
OFFSET 0 -4.983000 -0.000000
CHANNELS 3 Zrotation Xrotation Yrotation
							JOINT LeftWrist
							{
OFFSET 0 -3.483560 -0.000000
CHANNELS 3 Zrotation Xrotation Yrotation
								JOINT lhand
								{
									OFFSET 0 0 0
CHANNELS 3 Zrotation Xrotation Yrotation
									JOINT LFingers
									{
OFFSET 0 -0.715260 -0.000000
CHANNELS 3 Zrotation Xrotation Yrotation
										End Site
										{
OFFSET 0 -0.576660 -0.000000
										}
									}
								}
								JOINT LThumb
								{
OFFSET 0 0.000000 0.000000
CHANNELS 3 Zrotation Xrotation Yrotation
									End Site
									{
OFFSET 0 -0.585470 0.585470
									}
								}
							}
						}
					}
				}
				JOINT RightCollar
				{
					OFFSET 0 0 0
					CHANNELS 3 Zrotation Yrotation Xrotation
					JOINT RightShoulder
					{
						OFFSET -3.13660 1.37405 -0.40465
CHANNELS 3 Zrotation Xrotation Yrotation
						JOINT RightElbow
						{
OFFSET 0 -5.241900 -0.000000
CHANNELS 3 Zrotation Xrotation Yrotation
							JOINT RightWrist
							{
OFFSET 0 -3.444170 -0.000000
CHANNELS 3 Zrotation Xrotation Yrotation
								JOINT rhand
								{
									OFFSET 0 0 0
CHANNELS 3 Zrotation Xrotation Yrotation
									JOINT RFingers
									{
OFFSET 0 -0.622530 -0.000000
CHANNELS 3 Zrotation Xrotation Yrotation
										End Site
										{
OFFSET 0 -0.501900 -0.000000
										}
									}
								}
								JOINT RThumb
								{
OFFSET 0 0.000000 0.000000
CHANNELS 3 Zrotation Xrotation Yrotation
									End Site
									{
OFFSET 0 -0.509560 0.509560
									}
								}
							}
						}
					}
				}
			}
		}
	}
}
MOTION
Frames: 5
Frame Time: 0.008333333333333333
-0.808500 17.804900 18.351600 -175.264000 -79.292100 176.530000 0.000000 0.000000 0.000000 -18.897200 7.870600 -10.725300 1.398800 7.482000 21.151300 0.229500 -10.092500 -10.383400 0.749800 5.530900 15.429100 0.000000 0.000000 0.000000 18.079200 6.386200 -24.724700 -8.727400 -16.629100 55.142700 -0.094800 -4.250800 -8.896800 -0.542600 -4.719300 13.109500 -4.136500 2.112400 9.343800 -1.079000 2.246300 4.698000 0.989800 0.983400 -0.474900 -9.943100 -5.801700 2.526500 0.370600 -8.480800 20.791200 1.304600 -5.084900 6.387300 0.000000 -0.000000 0.000000 16.029200 -6.764400 -21.763800 23.605000 -34.743700 7.480200 18.711800 -9.500100 6.498400 0.000000 0.000000 0.000000 -7.125000 0.000000 0.000000 -5.916100 23.131000 -3.132600 0.000000 -0.000000 0.000000 -4.910100 -3.774000 26.184300 -26.371300 -37.573000 -9.113100 -17.922800 -9.184400 22.338800 0.000000 0.000000 0.000000 7.125000 0.000000 -0.000000 11.391200 52.980500 -2.260000
-1.488485 17.757280 18.326682 -177.902578 -78.254653 180.449122 0.000000 0.000000 0.000000 -19.846063 7.548308 -9.740427 1.521581 7.788864 22.074658 0.651573 -9.142814 -14.811884 0.278132 3.385875 9.355493 0.000000 0.000000 0.000000 18.181099 5.146579 -29.652494 -5.327827 -13.739346 42.211723 0.064233 -7.479482 -9.097672 -0.202477 -2.895748 7.988726 -3.945289 2.125427 9.094110 -1.436398 2.285834 4.556262 0.515885 1.012411 -0.465978 -9.862091 -5.753429 2.996809 0.636627 -8.492571 20.191875 1.404102 -5.049716 6.121355 0.000000 0.000000 0.000000 17.380189 -8.510696 -24.332267 27.794247 -38.924994 9.994567 19.808829 -10.833709 5.867131 0.000000 0.000000 0.000000 -7.125000 0.000000 0.000000 -5.116658 23.750283 -2.631933 0.000000 0.000000 0.000000 -4.009207 -3.476518 26.155878 -25.682151 -36.893009 -8.696170 -17.806838 -8.448094 21.457150 0.000000 0.000000 0.000000 7.125000 0.000000 0.000000 11.156328 52.071966 -1.961824
-2.231413 17.733872 18.177261 -182.256441 -77.957716 186.165836 0.000000 0.000000 0.000000 -20.975650 8.231780 -6.863911 1.140419 6.781475 19.069736 0.819950 -7.954380 -16.262874 0.057044 1.538614 4.232336 0.000000 0.000000 0.000000 18.967219 3.745471 -32.813265 -2.367850 -9.592449 27.667788 0.178954 -10.075377 -10.876074 -0.053895 -1.497889 4.119950 -5.036141 1.944080 8.672954 -1.491832 1.986786 4.467343 1.107083 0.847983 -0.345791 -10.761508 -5.817460 2.793007 1.728171 -8.690204 19.901610 1.875841 -5.119763 6.161941 0.000000 0.000000 0.000000 17.632302 -8.840346 -26.012559 31.154402 -41.862509 12.172757 19.927914 -11.339327 6.478074 0.000000 0.000000 0.000000 -7.125000 0.000000 0.000000 -5.021039 23.099542 -2.658482 0.000000 0.000000 0.000000 -3.895732 -2.512069 26.833797 -24.076214 -35.244694 -7.750492 -19.022310 -7.924590 22.025539 0.000000 0.000000 0.000000 7.125000 0.000000 0.000000 10.167849 52.862333 -1.983183
-3.048195 17.698247 17.974977 -185.964997 -78.506798 191.202487 0.000000 0.000000 0.000000 -21.458465 9.116571 -3.392606 0.728292 5.451050 15.199993 0.815017 -7.994012 -16.220639 0.054057 1.499868 4.125426 0.000000 0.000000 0.000000 18.291291 5.564290 -33.430885 -0.758897 -5.560795 15.515924 -0.019754 -12.637414 -18.215094 -0.024245 -1.001860 2.753958 -5.674356 1.258638 8.192270 -1.412522 1.075201 4.353255 1.635479 0.385943 -0.157423 -11.857397 -5.828913 2.054445 2.688741 -8.731001 19.940497 2.324366 -5.140033 6.395321 0.000000 0.000000 0.000000 17.846453 -8.247005 -27.739664 32.100391 -42.626995 12.808789 19.339224 -11.509670 6.635578 0.000000 0.000000 0.000000 -7.125000 0.000000 0.000000 -5.452478 22.959708 -2.906422 0.000000 0.000000 0.000000 -3.583055 -1.770405 25.675987 -20.973176 -31.795876 -6.036360 -15.796952 -7.180400 21.590693 0.000000 0.000000 0.000000 7.125000 0.000000 0.000000 13.184006 51.860131 -2.259892
-3.907966 17.603805 17.715857 -193.599881 -78.635301 199.365339 0.000000 0.000000 0.000000 -22.170461 11.317934 0.699506 0.402363 4.071909 11.279065 0.745875 -8.452957 -15.617048 0.009060 0.610410 1.677397 0.000000 0.000000 0.000000 16.914317 6.924424 -34.099230 -0.604936 -4.978058 13.846172 -0.010739 -16.605077 -23.644217 -0.087836 -1.910529 5.258370 -6.212086 0.954992 8.372980 -1.608150 0.610857 4.245735 1.770676 0.153986 -0.336350 -11.087779 -6.671998 1.448458 1.862871 -9.699529 20.169310 1.843019 -5.595328 6.569879 0.000000 0.000000 0.000000 17.079651 -7.285219 -29.709818 29.740746 -40.669897 11.240324 19.230818 -9.734781 6.988835 0.000000 0.000000 0.000000 -7.125000 0.000000 0.000000 -5.527925 22.592825 -2.993507 0.000000 0.000000 0.000000 -3.099638 -1.149798 22.419315 -16.929728 -26.764550 -4.055914 -15.137544 -5.354218 20.788717 0.000000 0.000000 0.000000 7.125000 0.000000 0.000000 13.500114 50.955022 -2.012358
